<svg clip-rule="evenodd" fill-rule="evenodd" stroke-linejoin="round" stroke-miterlimit="2" version="1.1" viewBox="0 0 2024 455" xml:space="preserve" xmlns="http://www.w3.org/2000/svg">
    <g transform="translate(-51.416 -68.228)">
        <g transform="scale(4.1667)">
            <g transform="translate(497.72 53.446)">
                <path d="m0 34.616v13.2c-0.016 1.017-0.904 1.623-1.921 1.623h-42.965c-22.285 0-38.712-14.12-38.712-32.755 0-18.828 16.427-31.507 38.712-31.507h43.161c1.039 0 1.741 0.634 1.725 1.673v13.414c-0.015 1.017-0.904 1.626-1.921 1.626h-42.965c-10.758 0-18.827 6.436-18.827 15.658 0 9.126 7.972 15.369 18.827 15.369h43.161c1.039 0 1.741 0.66 1.725 1.699" fill="#45955e" fill-rule="nonzero"/>
            </g>
        </g>
        <g transform="scale(4.1667)">
            <g transform="translate(125.7 63.017)">
                <path d="m0 15.473v6.908c0 0.533 0.432 0.965 0.965 0.965h35.633c4.323 0 6.147-1.537 6.147-4.515 0-2.786-1.824-4.323-6.147-4.323h-35.633c-0.533 0-0.965 0.432-0.965 0.965m62.631 5.664c0 10.662-5.86 18.731-26.129 18.731h-54.609c-1.035 0-1.873-0.839-1.873-1.873v-35.368c0-1.024 0.83-1.855 1.854-1.855h55.013c2.881 0 5.57-1.056 5.57-4.323 0-3.169-2.786-4.13-5.57-4.13 0 0-42.551-0.07-54.155-0.022-1.369 5e-3 -2.287-1.421-1.7-2.657 2.175-5.188 11.405-14.035 18.279-14.035h36.711c15.369 0 25.263 5.955 25.263 17.77 0 6.83-3.499 10.936-7.421 12.88-0.446 0.221-0.431 0.852 0.031 1.039 4.932 2.003 8.736 6.79 8.736 13.843" fill="#45955e" fill-rule="nonzero"/>
            </g>
        </g>
        <g transform="scale(4.1667)">
            <g transform="translate(133.31 87.337)">
                <path d="m0-69.406c0.058-3e-3 0.071 0.079 0.016 0.096-9.095 2.805-17.663 6.755-25.668 11.46-8.122 4.779-15.679 10.334-22.712 16.404-14.026 12.145-26.097 26.319-35.924 41.42-0.016 0.024-0.049 0.029-0.072 0.01l-20.98-17.739c-0.022-0.019-0.023-0.053-1e-3 -0.073 7.481-7.05 15.354-13.495 23.577-19.364 8.238-5.873 16.832-11.161 25.747-15.728 8.913-4.563 18.155-8.402 27.623-11.257 9.328-2.813 18.885-4.655 28.394-5.229" fill="#a0a6a9" fill-rule="nonzero"/>
            </g>
        </g>
        <g transform="scale(4.1667)">
            <g transform="matrix(.55531 .83164 .83164 -.55531 35.688 76.394)">
                <path d="m3.214-1.656c-1.003 2.172-1.875 4.389-2.653 6.631l2.653 0.958c0.808-2.147 1.701-4.256 2.707-6.297l-2.707-1.292z" fill="#fff" fill-rule="nonzero"/>
            </g>
        </g>
        <g transform="scale(4.1667)">
            <g transform="matrix(.68302 -.7304 -.7304 -.68302 46.94 70.473)">
                <path d="m-0.211 2.957h7.071l-0.038-2.463-6.92-0.177-0.113 2.64z" fill="#fff" fill-rule="nonzero"/>
            </g>
        </g>
        <g transform="scale(4.1667)">
            <g transform="matrix(.75238 -.65874 -.65874 -.75238 56.364 60.382)">
                <path d="m-0.154 2.567h7.048l-0.019-2.106-6.95-0.177-0.079 2.283z" fill="#fff" fill-rule="nonzero"/>
            </g>
        </g>
        <g transform="scale(4.1667)">
            <g transform="matrix(.80269 -.5964 -.5964 -.80269 66.803 51.222)">
                <path d="m-0.142 2.257h7.034l-0.011-1.749-6.962-0.178-0.061 1.927z" fill="#fff" fill-rule="nonzero"/>
            </g>
        </g>
        <g transform="scale(4.1667)">
            <g transform="matrix(.84445 -.53564 -.53564 -.84445 77.963 42.916)">
                <path d="m-0.141 1.979h7.027l-8e-3 -1.392-6.97-0.177-0.049 1.569z" fill="#fff" fill-rule="nonzero"/>
            </g>
        </g>
        <g transform="scale(4.1667)">
            <g transform="matrix(.88251 -.47029 -.47029 -.88251 89.709 35.453)">
                <path d="m-0.137 1.703h7.025l-7e-3 -1.034-6.979-0.178-0.039 1.212z" fill="#fff" fill-rule="nonzero"/>
            </g>
        </g>
        <g transform="scale(4.1667)">
            <g transform="matrix(.91968 -.39266 -.39266 -.91968 101.98 28.904)">
                <path d="m-0.12 1.398h7.019l-7e-3 -0.677-6.981-0.178-0.031 0.855z" fill="#fff" fill-rule="nonzero"/>
            </g>
        </g>
        <g transform="scale(4.1667)">
            <g transform="matrix(.95672 -.29101 -.29101 -.95672 114.73 23.438)">
                <path d="m-0.082 1.023h7.014l-6e-3 -0.319-6.986-0.178-0.022 0.497z" fill="#fff" fill-rule="nonzero"/>
            </g>
        </g>
        <g transform="scale(4.1667)">
            <g transform="translate(127.9 18.164)">
                <path d="M0,0.702L5.428,-0.137L0.028,0.839L0,0.702Z" fill="#fff" fill-rule="nonzero"/>
            </g>
        </g>
        <g transform="scale(4.1667)">
            <g transform="translate(18.678 65.087)">
                <path d="m0-3.059c-1.63 3.221-4.748 9.676-6.239 12.781-0.237 0.494-0.036 1.075 0.449 1.33 13.878 7.279 26.624 17.743 34.508 32.645 1.027 1.941 3.787 1.977 4.919 0.095 29.423-54.871 65.407-82.464 99.466-92.362 0.09-0.03 0.041-0.163-0.051-0.139-53.41 13.613-80.158 43.177-102.22 69.43-0.433 0.516-1.22 0.486-1.623-0.054-6.768-9.079-16.422-17.756-27.759-24.164-0.519-0.293-1.182-0.094-1.451 0.438" fill="#45955e" fill-rule="nonzero"/>
            </g>
        </g>
        <g transform="scale(4.1667)">
            <g transform="translate(111.82 111.8)">
                <path d="m0 11.926c-0.252 0.021-0.546 0.021-0.819 0.021-0.882 0.021-2.183 0-3.59 0v-5.648h3.695c0.315 0 0.63 0.021 0.903 0.042 2.666 0.21 3.884 1.134 3.779 2.96-0.126 1.743-1.239 2.415-3.968 2.625m-4.409-11.947c1.218 0 1.994-0.021 2.582 0 0.273 0 0.567 0 0.819 0.021 2.709 0.168 3.842 0.609 3.842 2.288 0 1.428-0.965 2.268-3.317 2.583-0.42 0.042-0.903 0.063-1.344 0.084h-2.582v-4.976zm5.879 5.522c2.162-0.441 2.939-2.121 2.939-3.317 0-2.037-1.68-3.57-5.312-3.57h-5.081v14.698h6.215c3.611 0 5.312-1.806 5.312-4.011 0-1.806-1.323-3.674-4.073-3.8" fill="#5c5f60" fill-rule="nonzero"/>
            </g>
        </g>
        <g transform="scale(4.1667)">
            <g transform="translate(126.24 115.72)">
                <path d="m0 8.146c-2.247 0-4.073-1.7-4.073-4.073 0-2.372 1.826-4.073 4.073-4.073s4.073 1.701 4.073 4.073c0 2.373-1.826 4.073-4.073 4.073m4.073-7.369c-0.966-1.386-2.561-2.247-4.346-2.247-2.96 0-5.375 2.351-5.375 5.543 0 3.191 2.415 5.543 5.375 5.543 1.785 0 3.38-0.861 4.346-2.246v2.015h1.575v-10.624h-1.575v2.016z" fill="#5c5f60" fill-rule="nonzero"/>
            </g>
        </g>
        <g transform="scale(4.1667)">
            <g transform="translate(0 93.785)">
                <rect x="136.18" y="16.625" width="1.575" height="14.697" fill="#5c5f60"/>
            </g>
        </g>
        <g transform="scale(4.1667)">
            <g transform="translate(0 93.785)">
                <rect x="142.04" y="16.625" width="1.575" height="14.697" fill="#5c5f60"/>
            </g>
        </g>
        <g transform="scale(4.1667)">
            <g transform="translate(152.91 115.72)">
                <path d="m0 8.146c-2.247 0-4.073-1.7-4.073-4.073 0-2.372 1.826-4.073 4.073-4.073s4.073 1.701 4.073 4.073c0 2.373-1.826 4.073-4.073 4.073m4.073-7.369c-0.966-1.386-2.561-2.247-4.346-2.247-2.96 0-5.375 2.351-5.375 5.543 0 3.191 2.415 5.543 5.375 5.543 1.785 0 3.38-0.861 4.346-2.246v2.015h1.575v-10.624h-1.575v2.016z" fill="#5c5f60" fill-rule="nonzero"/>
            </g>
        </g>
        <g transform="scale(4.1667)">
            <g transform="translate(164.42 122.42)">
                <path d="m0-5.48v-2.456h-1.575v10.624h1.575v-5.417c0-2.394 1.932-3.633 3.632-3.633v-1.806c-1.805 0-3.233 1.45-3.632 2.688" fill="#5c5f60" fill-rule="nonzero"/>
            </g>
        </g>
        <g transform="scale(4.1667)">
            <g transform="translate(175.68 115.72)">
                <path d="m0 8.146c-2.247 0-4.073-1.7-4.073-4.073 0-2.372 1.826-4.073 4.073-4.073s4.073 1.701 4.073 4.073c0 2.373-1.826 4.073-4.073 4.073m4.073-7.369c-0.966-1.386-2.561-2.247-4.346-2.247-2.96 0-5.375 2.351-5.375 5.543 0 3.191 2.415 5.543 5.375 5.543 1.785 0 3.38-0.861 4.346-2.246v2.015h1.575v-10.624h-1.575v2.016z" fill="#5c5f60" fill-rule="nonzero"/>
            </g>
        </g>
        <g transform="scale(4.1667)">
            <g transform="translate(187.6 125.11)">
                <path d="m0-14.697h-1.575v4.073h-1.469v1.364h1.469v9.26h1.575v-9.26h2.499v-1.364h-2.499v-4.073z" fill="#5c5f60" fill-rule="nonzero"/>
            </g>
        </g>
        <g transform="scale(4.1667)">
            <g transform="translate(204.2 116.77)">
                <path d="m0 1.975 3.122-6.74 3.111 6.74h-6.233zm2.156-8.336-6.845 14.697h1.743l2.312-4.992h7.499l2.304 4.992h1.743l-6.845-14.697h-1.911z" fill="#5c5f60" fill-rule="nonzero"/>
            </g>
        </g>
        <g transform="scale(4.1667)">
            <g transform="translate(226.33 119.8)">
                <path d="m0 0.231c0 2.498-1.575 3.947-3.611 3.947-2.058 0-3.633-1.449-3.633-3.947v-5.543h-1.574v5.753c0 3.065 2.33 5.102 5.207 5.102 2.855 0 5.185-2.037 5.185-5.102v-5.753h-1.574v5.543z" fill="#5c5f60" fill-rule="nonzero"/>
            </g>
        </g>
        <g transform="scale(4.1667)">
            <g transform="translate(234.39 125.11)">
                <path d="m0-14.697h-1.575v4.073h-1.47v1.364h1.47v9.26h1.575v-9.26h2.498v-1.364h-2.498v-4.073z" fill="#5c5f60" fill-rule="nonzero"/>
            </g>
        </g>
        <g transform="scale(4.1667)">
            <g transform="translate(244.41 115.62)">
                <path d="m0 8.358c-2.184 0-3.968-1.68-3.968-4.179 0-2.498 1.784-4.177 3.968-4.177s3.947 1.679 3.947 4.177c0 2.499-1.763 4.179-3.947 4.179m0-9.722c-3.065 0-5.543 2.478-5.543 5.543 0 3.066 2.478 5.543 5.543 5.543 3.045 0 5.543-2.477 5.543-5.543 0-3.065-2.498-5.543-5.543-5.543" fill="#5c5f60" fill-rule="nonzero"/>
            </g>
        </g>
        <g transform="scale(4.1667)">
            <g transform="translate(267.63 125.11)">
                <path d="m0-10.855c-2.246 0-3.926 1.218-4.619 3.045-0.714-1.827-2.372-3.045-4.64-3.045-2.625 0-4.976 1.932-4.976 5.207v5.648h1.575v-5.312c0-2.604 1.386-4.178 3.632-4.178 2.247 0 3.611 1.91 3.611 4.283v5.207h1.575v-5.207c0-2.373 1.386-4.283 3.632-4.283 2.247 0 3.611 1.574 3.611 4.178v5.312h1.576v-5.648c0-3.275-2.352-5.207-4.977-5.207" fill="#5c5f60" fill-rule="nonzero"/>
            </g>
        </g>
        <g transform="scale(4.1667)">
            <g transform="translate(281.6 115.62)">
                <path d="m0 8.358c-2.184 0-3.968-1.68-3.968-4.179 0-2.498 1.784-4.177 3.968-4.177s3.947 1.679 3.947 4.177c0 2.499-1.763 4.179-3.947 4.179m0-9.722c-3.065 0-5.543 2.478-5.543 5.543 0 3.066 2.478 5.543 5.543 5.543 3.045 0 5.543-2.477 5.543-5.543 0-3.065-2.498-5.543-5.543-5.543" fill="#5c5f60" fill-rule="nonzero"/>
            </g>
        </g>
        <g transform="scale(4.1667)">
            <g transform="translate(292.79 125.11)">
                <path d="m0-14.697h-1.574v4.073h-1.47v1.364h1.47v9.26h1.574v-9.26h2.499v-1.364h-2.499v-4.073z" fill="#5c5f60" fill-rule="nonzero"/>
            </g>
        </g>
        <g transform="scale(4.1667)">
            <g transform="matrix(-1 0 0 1 298.69 113.12)">
                <path d="m0-1.806c0.504 0 0.902 0.399 0.902 0.903s-0.398 0.903-0.902 0.903-0.902-0.399-0.902-0.903 0.398-0.903 0.902-0.903" fill="#5c5f60" fill-rule="nonzero"/>
            </g>
        </g>
        <g transform="scale(4.1667)">
            <g transform="translate(0 97.858)">
                <rect x="297.9" y="16.625" width="1.596" height="10.624" fill="#5c5f60"/>
            </g>
        </g>
        <g transform="scale(4.1667)">
            <g transform="translate(307.91 116.08)">
                <path d="m0 7.432-3.884-9.028h-1.721l4.619 10.624h1.973l4.619-10.624h-1.721l-3.885 9.028z" fill="#5c5f60" fill-rule="nonzero"/>
            </g>
        </g>
        <g transform="scale(4.1667)">
            <g transform="translate(317.11 120.36)">
                <path d="m0-1.132c0.252-2.184 1.91-3.611 3.926-3.611 2.015 0 3.233 1.427 3.465 3.611h-7.391zm3.926-4.977c-3.066 0-5.543 2.478-5.543 5.543 0 3.066 2.477 5.543 5.543 5.543 1.595 0 3.254-0.672 4.262-1.742l-1.049-0.987c-0.736 0.861-2.016 1.365-3.213 1.365-2.016 0-3.674-1.428-3.926-3.611h8.986c0.021-0.19 0.021-0.378 0.021-0.568 0-3.065-2.036-5.543-5.081-5.543" fill="#5c5f60" fill-rule="nonzero"/>
            </g>
        </g>
        <g transform="scale(4.1667)">
            <g transform="translate(344.18 119.5)">
                <path d="m0-2.666c-1.701-0.42-3.527-0.399-4.451-1.617-0.651-0.861-0.567-1.91 0.21-2.604 1.428-1.238 3.611-1.217 5.27-0.356 0.525 0.294 0.987 0.692 1.407 1.134l1.197-1.008c-0.022-0.042-0.043-0.084-0.064-0.084-1.217-1.428-3.107-2.1-4.934-2.121-1.512 0-3.17 0.504-4.22 1.659-1.176 1.28-1.176 3.086-0.188 4.304 1.384 1.659 3.4 1.659 5.291 2.163 1.196 0.314 2.456 0.482 3.086 1.406 0.398 0.567 0.693 2.268-1.008 3.401-1.953 1.282-4.787 0.882-6.53-0.692-0.609-0.546-0.882-1.05-1.007-1.323l-1.45 0.525c0.042 0.147 0.126 0.336 0.274 0.567 1.68 2.855 5.795 3.968 8.881 2.561 1.869-0.84 3.045-2.582 2.729-4.472-0.399-2.373-2.435-2.919-4.493-3.443" fill="#5c5f60" fill-rule="nonzero"/>
            </g>
        </g>
        <g transform="scale(4.1667)">
            <g transform="translate(353.57 120.36)">
                <path d="m0-1.132c0.252-2.184 1.911-3.611 3.927-3.611 2.015 0 3.233 1.427 3.464 3.611h-7.391zm3.927-4.977c-3.066 0-5.543 2.478-5.543 5.543 0 3.066 2.477 5.543 5.543 5.543 1.595 0 3.255-0.672 4.262-1.742l-1.05-0.987c-0.735 0.861-2.016 1.365-3.212 1.365-2.016 0-3.675-1.428-3.927-3.611h8.986c0.022-0.19 0.022-0.378 0.022-0.568 0-3.065-2.037-5.543-5.081-5.543" fill="#5c5f60" fill-rule="nonzero"/>
            </g>
        </g>
        <g transform="scale(4.1667)">
            <g transform="translate(367.81 122.42)">
                <path d="m0-5.48v-2.456h-1.575v10.624h1.575v-5.417c0-2.394 1.932-3.633 3.632-3.633v-1.806c-1.806 0-3.234 1.45-3.632 2.688" fill="#5c5f60" fill-rule="nonzero"/>
            </g>
        </g>
        <g transform="scale(4.1667)">
            <g transform="translate(379.65 116.08)">
                <path d="m0 7.432-3.884-9.028h-1.721l4.619 10.624h1.973l4.619-10.624h-1.721l-3.885 9.028z" fill="#5c5f60" fill-rule="nonzero"/>
            </g>
        </g>
        <g transform="scale(4.1667)">
            <g transform="matrix(-1 0 0 1 388.87 113.12)">
                <path d="m0-1.806c0.504 0 0.902 0.399 0.902 0.903s-0.398 0.903-0.902 0.903-0.902-0.399-0.902-0.903 0.398-0.903 0.902-0.903" fill="#5c5f60" fill-rule="nonzero"/>
            </g>
        </g>
        <g transform="scale(4.1667)">
            <g transform="translate(0 97.858)">
                <rect x="388.07" y="16.625" width="1.596" height="10.624" fill="#5c5f60"/>
            </g>
        </g>
        <g transform="scale(4.1667)">
            <g transform="translate(398.86 123.97)">
                <path d="m0-8.356c1.196 0 2.268 0.504 3.003 1.364l1.028-0.966c-1.008-1.091-2.435-1.763-4.031-1.763-3.065 0-5.543 2.477-5.543 5.543 0 3.065 2.478 5.543 5.543 5.543 1.596 0 3.023-0.672 4.031-1.764l-1.028-0.966c-0.735 0.862-1.807 1.365-3.003 1.365-2.184 0-3.968-1.679-3.968-4.178 0-2.498 1.784-4.178 3.968-4.178" fill="#5c5f60" fill-rule="nonzero"/>
            </g>
        </g>
        <g transform="scale(4.1667)">
            <g transform="translate(407.33 120.36)">
                <path d="m0-1.132c0.252-2.184 1.911-3.611 3.927-3.611 2.015 0 3.233 1.427 3.464 3.611h-7.391zm3.927-4.977c-3.066 0-5.543 2.478-5.543 5.543 0 3.066 2.477 5.543 5.543 5.543 1.595 0 3.255-0.672 4.262-1.742l-1.05-0.987c-0.735 0.861-2.016 1.365-3.212 1.365-2.016 0-3.675-1.428-3.927-3.611h8.986c0.022-0.19 0.022-0.378 0.022-0.568 0-3.065-2.037-5.543-5.081-5.543" fill="#5c5f60" fill-rule="nonzero"/>
            </g>
        </g>
        <g transform="scale(4.1667)">
            <g transform="translate(434.92 123.97)">
                <path d="m0-12.429c1.953 0 3.695 0.84 4.851 2.162l1.028-1.028c-1.448-1.512-3.548-2.499-5.879-2.499-4.367 0-7.915 3.087-7.915 7.58s3.548 7.579 7.915 7.579c2.331 0 4.431-0.986 5.879-2.498l-1.028-1.029c-1.156 1.323-2.898 2.163-4.851 2.163-3.484 0-6.34-2.394-6.34-6.215s2.856-6.215 6.34-6.215" fill="#5c5f60" fill-rule="nonzero"/>
            </g>
        </g>
        <g transform="scale(4.1667)">
            <g transform="translate(445.23 120.36)">
                <path d="m0-1.132c0.252-2.184 1.91-3.611 3.926-3.611 2.015 0 3.233 1.427 3.465 3.611h-7.391zm3.926-4.977c-3.066 0-5.543 2.478-5.543 5.543 0 3.066 2.477 5.543 5.543 5.543 1.595 0 3.254-0.672 4.262-1.742l-1.049-0.987c-0.736 0.861-2.016 1.365-3.213 1.365-2.016 0-3.674-1.428-3.926-3.611h8.986c0.021-0.19 0.021-0.378 0.021-0.568 0-3.065-2.036-5.543-5.081-5.543" fill="#5c5f60" fill-rule="nonzero"/>
            </g>
        </g>
        <g transform="scale(4.1667)">
            <g transform="translate(462.89 125.11)">
                <path d="m0-10.855c-2.876 0-5.207 2.037-5.207 5.081v5.774h1.575v-5.543c0-2.499 1.574-3.947 3.632-3.947 2.036 0 3.611 1.448 3.611 3.947v5.543h1.576v-5.774c0-3.044-2.332-5.081-5.187-5.081" fill="#5c5f60" fill-rule="nonzero"/>
            </g>
        </g>
        <g transform="scale(4.1667)">
            <g transform="translate(474.36 125.11)">
                <path d="m0-14.697h-1.575v4.073h-1.47v1.364h1.47v9.26h1.575v-9.26h2.498v-1.364h-2.498v-4.073z" fill="#5c5f60" fill-rule="nonzero"/>
            </g>
        </g>
        <g transform="scale(4.1667)">
            <g transform="translate(481.66 122.42)">
                <path d="m0-5.48v-2.456h-1.574v10.624h1.574v-5.417c0-2.394 1.932-3.633 3.633-3.633v-1.806c-1.806 0-3.234 1.45-3.633 2.688" fill="#5c5f60" fill-rule="nonzero"/>
            </g>
        </g>
        <g transform="scale(4.1667)">
            <g transform="translate(488.89 120.36)">
                <path d="m0-1.132c0.252-2.184 1.91-3.611 3.926-3.611 2.015 0 3.233 1.427 3.465 3.611h-7.391zm9.007 0.566c0-3.065-2.036-5.543-5.081-5.543-3.066 0-5.543 2.478-5.543 5.543 0 3.066 2.477 5.543 5.543 5.543 1.595 0 3.254-0.672 4.262-1.742l-1.049-0.987c-0.736 0.861-2.016 1.365-3.213 1.365-2.016 0-3.674-1.428-3.926-3.611h8.986c0.021-0.19 0.021-0.378 0.021-0.568" fill="#5c5f60" fill-rule="nonzero"/>
            </g>
        </g>
        <g transform="scale(4.1667)">
            <g transform="translate(233.37 40.966)">
                <path d="m0 59.573 9.666-13.302c0.278-0.382 0.722-0.608 1.195-0.608h15.125c2.657 0 5.642 0 8.231 0.065 1.215 0.031 1.943-1.332 1.241-2.324-1.486-2.1-3.207-4.616-4.653-6.719l-10.144-14.962c-0.578-0.853-1.832-0.866-2.427-0.024l-28.002 39.594c-0.276 0.392-0.726 0.624-1.205 0.624h-19.533c-1.198 0-1.897-1.352-1.204-2.33l38.889-54.844c2.647-3.686 6.521-7.087 12.663-7.087 5.86 0 9.735 3.118 12.475 7.087l37.902 54.859c0.676 0.979-0.024 2.315-1.215 2.315h-67.81c-1.206 0-1.903-1.368-1.194-2.344" fill="#45955e" fill-rule="nonzero"/>
            </g>
        </g>
        <g transform="scale(4.1667)">
            <g transform="translate(378.17 77.237)">
                <path d="m0-12.968c15.657 0 24.11 5.859 24.11 17.579 0 13.159-7.973 21.036-27.568 21.036h-56.732c-1.268 0-1.984-1.458-1.208-2.462l10.414-13.467c0.289-0.374 0.736-0.593 1.208-0.593h47.855c4.706 0 6.82-1.345 6.82-4.707 0-3.266-2.114-4.61-6.82-4.61h-34.964c-16.522 0-24.11-7.397-24.11-18.443 0-12.103 8.068-19.98 27.567-19.98h52.719c1.265 0 1.982 1.45 1.213 2.455l-10.441 13.659c-0.289 0.378-0.737 0.6-1.213 0.6h-43.815c-4.611 0-6.819 1.153-6.819 4.419 0 3.265 2.208 4.514 6.819 4.514h34.965z" fill="#45955e" fill-rule="nonzero"/>
            </g>
        </g>
    </g>
</svg>
